MoBL_ARMS_module2_4_elbow_flexion_states	
version=1	
nRows=168	
nColumns=2	
inDegrees=yes	
	
# SIMM Motion File Header:	
name MoBL_ARMS_module2_4_elbow_flexion_states	
datacolumns 2	
datarows 168	
otherdata 1	
range 2.512823788 2.920010451	
endheader	
time	elbow_flexion
2.512823788	26.58679254
2.515018923	26.59521602
2.517826953	26.6059018
2.520308723	26.61525967
2.522790493	26.62453403
2.525272263	26.6337225
2.527754033	26.64282276
2.530235803	26.65183255
2.532717573	26.66074963
2.534893066	26.66848825
2.537068559	26.6761525
2.539767837	26.6855565
2.542467114	26.69484104
2.544722695	26.7025058
2.546978277	26.71008388
2.549233859	26.71757384
2.552185327	26.72723912
2.55459126	26.73500234
2.556997193	26.74265998
2.559403126	26.75021045
2.561809059	26.7576522
2.564214992	26.7649837
2.566620925	26.77220349
2.569026858	26.77931014
2.571432791	26.78630225
2.573838724	26.79317848
2.576244657	26.79993753
2.57865059	26.80657813
2.581056523	26.81309907
2.583462457	26.81949917
2.58586839	26.82577729
2.58875604	26.83314983
2.59104628	26.83886985
2.593336519	26.84447635
2.595626759	26.84996852
2.598487065	26.85666599
2.60078785	26.86192201
2.603088636	26.86706018
2.605389421	26.87207981
2.608202898	26.87805594
2.610625733	26.88305862
2.613048568	26.88792765
2.615471403	26.89266241
2.617894239	26.89726231
2.620317074	26.90172684
2.622739909	26.9060555
2.625162744	26.91024785
2.627585579	26.91430349
2.630008415	26.91822207
2.63243125	26.92200327
2.634854085	26.92564682
2.63727692	26.9291525
2.639699755	26.93252012
2.64212259	26.93574953
2.644545426	26.93884065
2.646968261	26.94179341
2.649391096	26.94460779
2.651813931	26.94728383
2.654236766	26.94982158
2.656659601	26.95222117
2.659082437	26.95448273
2.661505272	26.95660645
2.663928107	26.95859257
2.666350942	26.96044136
2.668773777	26.96215312
2.671196613	26.9637282
2.673619448	26.96516698
2.676042283	26.9664699
2.678465118	26.96763742
2.680887953	26.96867003
2.683832547	26.96974419
2.686116794	26.97044142
2.68840104	26.97102036
2.690685287	26.97148156
2.693437321	26.97188165
2.695899565	26.97209631
2.69836181	26.97217649
2.700824054	26.97212299
2.703286298	26.97193671
2.705748542	26.97161854
2.708210786	26.97116942
2.710673031	26.97059034
2.713135275	26.96988228
2.715328557	26.96914382
2.71752184	26.96830461
2.720221845	26.96713433
2.72292185	26.96581406
2.725130826	26.96462341
2.727339802	26.96333426
2.730013365	26.9616435
2.732686928	26.95981134
2.734925484	26.95816974
2.73716404	26.95643116
2.739867877	26.95420334
2.742571714	26.95183732
2.744736174	26.94984494
2.746900634	26.94776614
2.749593911	26.94506028
2.752287187	26.94222408
2.754557482	26.93973349
2.756827776	26.93715286
2.75909807	26.9344834
2.761996919	26.93094769
2.764394981	26.92791667
2.766793042	26.92479116
2.769191103	26.92157266
2.771589164	26.91826268
2.773987225	26.91486277
2.776385286	26.91137449
2.778783348	26.90779939
2.781181409	26.90413907
2.78357947	26.90039512
2.785977531	26.89656917
2.78892729	26.89175294
2.791125825	26.888086
2.79332436	26.88435447
2.796124005	26.87951123
2.798553151	26.87522784
2.800982297	26.87087094
2.803411443	26.86644231
2.805840589	26.86194372
2.808269735	26.85737697
2.810698881	26.85274385
2.813128027	26.84804617
2.815557173	26.84328574
2.817986319	26.83846438
2.820415465	26.83358392
2.822844611	26.8286462
2.825273757	26.82365305
2.827702903	26.81860632
2.830132049	26.81350785
2.832561195	26.80835951
2.834990341	26.80316313
2.837419487	26.79792059
2.839848633	26.79263374
2.842277779	26.78730444
2.844706925	26.78193455
2.847136071	26.77652593
2.849565217	26.77108045
2.851994363	26.76559996
2.854423509	26.76008632
2.856852655	26.7545414
2.859281801	26.74896704
2.861710947	26.7433651
2.864140093	26.73773742
2.866569239	26.73208584
2.868998385	26.72641221
2.871427531	26.72071836
2.873856677	26.71500612
2.876285823	26.7092773
2.878714969	26.70353372
2.881144115	26.6977772
2.883573261	26.69200952
2.886002407	26.68623248
2.888431553	26.68044806
2.890860699	26.67465795
2.893289845	26.66886385
2.895718991	26.66306749
2.898148137	26.65727061
2.900577283	26.65147494
2.903006429	26.64568219
2.905435575	26.63989409
2.907864721	26.63411232
2.910293867	26.62833856
2.912723013	26.62257449
2.915152159	26.61682177
2.917581305	26.61108204
2.920010451	26.60535691
